<?xml version="1.0" encoding="UTF-8"?>
<svg width="40px" height="40px" viewBox="0 0 40 40" version="1.1" xmlns="http://www.w3.org/2000/svg" xmlns:xlink="http://www.w3.org/1999/xlink">
    <!-- Generator: Sketch 59.1 (86144) - https://sketch.com -->
    <title>ic_ADR</title>
    <desc>Created with Sketch.</desc>
    <g id="Design" stroke="none" stroke-width="1" fill="none" fill-rule="evenodd">
        <g id="Physicians_V6" transform="translate(-352.000000, -1240.000000)">
            <g id="Current-prescription-methods-could-be-improved." transform="translate(0.000000, 948.000000)">
                <g id="Group-3">
                    <g id="content" transform="translate(285.000000, 287.000000)">
                        <g id="Group-6">
                            <g id="Sub-Content">
                                <g id="Number" transform="translate(67.000000, 0.000000)">
                                    <g id="ic_ADR" transform="translate(0.000000, 5.000000)">
                                        <rect id="Rectangle" x="0" y="0" width="40" height="40" rx="10"></rect>
                                        <g id="1548285" fill-rule="nonzero">
                                            <path d="M21.4668611,27.5862069 C21.3130482,27.5862069 21.1589313,27.5275396 21.0412919,27.4099009 L11.9003692,18.2690455 C11.6653942,18.0340721 11.6653942,17.6528865 11.9003692,17.4176093 C12.1356482,17.182636 12.5168366,17.182636 12.7518116,17.4176093 L21.8927343,26.5584648 C22.1277093,26.7934381 22.1277093,27.1749277 21.8927343,27.4099009 C21.7750948,27.5275396 21.6209779,27.5862069 21.4668611,27.5862069 L21.4668611,27.5862069 Z" id="Path" fill="#0084FF"></path>
                                            <path d="M25.6167495,26.2068966 C25.4656934,26.2068966 25.3146372,26.1490964 25.1996319,26.0340918 L13.9660583,14.8005855 C13.7354518,14.5702783 13.7354518,14.1963643 13.9660583,13.9660572 C14.1963668,13.7354522 14.5702829,13.7354522 14.8005915,13.9660572 L26.0341652,25.1992656 C26.2644737,25.4298707 26.2644737,25.8034867 26.0341652,26.0340918 C25.9188619,26.1490964 25.7678057,26.2068966 25.6167495,26.2068966 L25.6167495,26.2068966 Z" id="Path" fill="#0084FF"></path>
                                            <path d="M26.9841917,22.0689655 C26.8300782,22.0689655 26.6759648,22.0102994 26.5583279,21.8926635 L17.4176067,12.7520094 C17.1826369,12.5170413 17.1826369,12.1355601 17.4176067,11.900592 C17.6528805,11.6653199 18.0340605,11.6653199 18.2693343,11.900592 L27.4097515,21.0409421 C27.6450254,21.2762142 27.6450254,21.6573914 27.4097515,21.8926635 C27.2921146,22.0102994 27.1380012,22.0689655 26.9841917,22.0689655 L26.9841917,22.0689655 Z" id="Path" fill="#0084FF"></path>
                                            <path d="M35.9648119,12.4137931 C35.8146405,12.4137931 35.6647655,12.356626 35.5501376,12.2419955 L27.0682713,3.76023024 C26.8393119,3.53096929 26.8393119,3.1595311 27.0682713,2.9305664 C27.297527,2.70130545 27.6689566,2.70130545 27.8982123,2.9305664 L36.3797824,11.4123316 C36.609038,11.6415926 36.609038,12.0130308 36.3797824,12.2419955 C36.2651546,12.356626 36.1149832,12.4137931 35.9648119,12.4137931 L35.9648119,12.4137931 Z" id="Path" fill="#44B0A3"></path>
                                            <path d="M11.8271076,36.5517241 C11.6769374,36.5517241 11.5267672,36.4945575 11.4121402,36.3799279 L2.930339,27.8979314 C2.70138125,27.6689685 2.70138125,27.2975331 2.930339,27.0682739 C3.15959284,26.839311 3.53101964,26.839311 3.76027356,27.0682739 L12.2420749,35.5502704 C12.4710325,35.7792333 12.4710325,36.1509649 12.2420749,36.3799279 C12.1274479,36.4945575 11.9772778,36.5517241 11.8271076,36.5517241 L11.8271076,36.5517241 Z" id="Path" fill="#44B0A3"></path>
                                            <path d="M11.0745721,25.2218286 C7.36745744,24.5424104 3.50896982,24.434281 0.388804799,27.4583697 C-0.129449579,27.9610095 -0.129753599,28.7756632 0.388804799,29.278303 C0.907363119,29.7809428 1.74781679,29.7806482 2.26637511,29.278303 C4.79624689,26.8260923 8.01641523,27.1858363 11.7241379,27.9763303 C11.5141005,27.0503062 11.2830897,26.1278177 11.0745721,25.2218286 L11.0745721,25.2218286 Z" id="Path" fill="#44B0A3"></path>
                                            <path d="M29.2673538,2.27906969 C29.7844453,1.75760679 29.7844453,0.912445506 29.2673538,0.3909826 C28.7505655,-0.130480384 27.9121862,-0.130174661 27.3953978,0.3909826 C20.01275,7.83604293 30.746187,18.9591593 24.7187068,25.0375955 C21.8619735,27.9187852 18.1223048,27.0586465 13.7931034,26.0444531 C14.0143677,27.003627 14.2365412,27.9698311 14.4159774,28.9274768 C18.5563464,29.858224 23.0504352,30.4961449 26.5909659,26.9256826 C33.9921029,19.4616711 23.2419954,8.35536624 29.2673538,2.27906969 Z" id="Path" fill="#44B0A3"></path>
                                            <path d="M25.5172414,13.9552646 C25.2965834,12.9997525 25.0719849,12.0200928 24.8943674,11.0725279 C20.7539984,10.1417747 16.2599097,9.50384972 12.7193789,13.074335 C5.35249247,20.5038543 16.0477385,31.6655563 10.042991,37.7211067 C9.52589955,38.2422673 9.52589955,39.0877397 10.042991,39.6089003 C10.5600825,40.1303666 11.3981586,40.1303666 11.914947,39.6089003 C19.3442724,32.117025 8.53233219,21.0726989 14.591638,14.9624343 C17.4486744,12.081226 21.18804,12.9413702 25.5172414,13.9552646 L25.5172414,13.9552646 Z" id="Path" fill="#005DB3"></path>
                                            <path d="M39.6113155,10.7221092 C39.0927656,10.219067 38.2523255,10.219067 37.7337756,10.7221092 C35.2039448,13.1762831 31.9838286,12.8162511 28.2758621,12.0251243 C28.4880238,12.9598511 28.7165992,13.8715782 28.9257213,14.7818311 C33.0267037,15.5340356 36.6620246,15.4042943 39.6113155,12.5432047 C40.1295615,12.0404574 40.1295615,11.2248566 39.6113155,10.7221092 L39.6113155,10.7221092 Z" id="Path" fill="#005DB3"></path>
                                        </g>
                                    </g>
                                </g>
                            </g>
                        </g>
                    </g>
                </g>
            </g>
        </g>
    </g>
</svg>