<?xml version="1.0" encoding="UTF-8"?>
<svg width="160px" height="160px" viewBox="0 0 160 160" version="1.1" xmlns="http://www.w3.org/2000/svg" xmlns:xlink="http://www.w3.org/1999/xlink">
    <!-- Generator: Sketch 59.1 (86144) - https://sketch.com -->
    <title>Ic_patient management</title>
    <desc>Created with Sketch.</desc>
    <defs>
        <path d="M21.5920525,0.63399716 L62.3154563,1.37047082 C70.7709985,1.52338741 78.1204801,7.21571595 80.3831962,15.3643167 L83.2722654,25.7685699 L83.2722654,25.7685699 L65.8788997,32.1278183 C50.0387633,37.9191851 32.6402416,37.7968351 16.8831199,31.7832698 L0,25.3399773 L0,25.3399773 L2.7711247,14.8569953 C5.02060728,6.34735107 12.7915475,0.474841995 21.5920525,0.63399716 Z" id="path-1"></path>
        <path d="M7.05333679,6.79906475 C7.57632234,15.6109288 5.41276109,20.5781717 0.562653023,21.7007934 L9.13497144,31.1484123 C12.4082269,34.7558926 17.9861653,35.0268354 21.5936456,31.7535799 C21.7833629,31.5814395 21.9654905,31.4011154 22.1395104,31.2131205 L30.4495643,22.2357107 L30.4495643,22.2357107 C26.0824683,20.651381 23.8989204,15.5058323 23.8989204,6.79906475 C23.8989204,-1.9077028 18.2837258,-1.9077028 7.05333679,6.79906475 Z" id="path-3"></path>
        <path d="M29.6888328,-5.7909233e-13 C26.1786234,6.78670448 22.8521452,11.256135 19.7093981,13.4082917 C14.9952774,16.6365266 5.90692488,17.3602512 2.43775793,17.3602512 C-1.03140901,17.3602512 -1.02519743,23.9235267 3.93399,25.6488612 C4.99209813,30.0202528 5.98907935,33.1382107 6.92493368,35.0027348 C9.64191356,40.4158362 13.0209199,43.7949913 18.5009828,43.7949913 C23.3033977,43.7949913 26.0758346,40.9628594 28.5070654,37.3261745 C30.855759,33.8129503 32.9320377,29.554308 33.636369,26.06856 C36.4802946,25.8890982 41.3044278,16.7327056 34.5651785,16.6803994 C34.0606472,12.2204175 32.4351986,6.66028439 29.6888328,-5.7909233e-13 Z" id="path-5"></path>
        <linearGradient x1="37.2604984%" y1="39.5091699%" x2="37.2604984%" y2="100%" id="linearGradient-7">
            <stop stop-color="#FFFFFF" stop-opacity="0" offset="0%"></stop>
            <stop stop-color="#FFA974" offset="100%"></stop>
        </linearGradient>
    </defs>
    <g id="Design" stroke="none" stroke-width="1" fill="none" fill-rule="evenodd">
        <g id="Physicians_V6" transform="translate(-1040.000000, -1884.000000)">
            <g id="From-start-to-finish,-the-process-is-painless-and-intuitive." transform="translate(135.000000, 1646.000000)">
                <g id="Card-Copy-2" transform="translate(800.000000, 178.000000)">
                    <g id="Group-8">
                        <g id="Ic_patient-management" transform="translate(105.000000, 60.000000)">
                            <circle id="Oval" fill="#076475" cx="80" cy="80" r="80"></circle>
                            <g id="Group-7" transform="translate(38.000000, 28.000000)">
                                <path d="M59.6658474,92.7142151 C86.6330972,80.743381 81.6951284,56.1565638 72.8407718,44.0261792 C63.9864152,31.8957946 64.5620526,14.686719 61.4183444,9.47693034 C59.3225389,6.0037379 56.6740521,4.45405335 53.4728839,4.82787669 C53.4728839,4.82787669 31.1672821,-11.978861 21.665201,19.0705451 C19.4310634,26.3709086 17.8733896,34.2833763 15.161207,39.3936582 C6.33812006,56.0180772 -3.18314504,61.9701562 8.73837319,80.0619324 C17.3423262,93.1190605 25.990142,88.2876219 34.5395532,89.1590385 C41.4774858,89.8662017 47.5852116,98.0768416 59.6658474,92.7142151 Z" id="Path-13" fill="#142832"></path>
                                <g id="Path-39-+-Path-41-+-Path-40-+-Path-40-Mask" transform="translate(0.668228, 62.189189)">
                                    <mask id="mask-2" fill="white">
                                        <use xlink:href="#path-1"></use>
                                    </mask>
                                    <use id="Mask" fill="#29DBC7" fill-rule="nonzero" xlink:href="#path-1"></use>
                                    <path d="M19.8265329,-1.40540541 L32.816049,14.401397 C36.7432533,19.1803696 43.8010041,19.8708642 48.5799767,15.9436599 C49.2117236,15.4245109 49.784718,14.8377396 50.2887136,14.1938388 L62.498591,-1.40540541 L62.498591,-1.40540541" id="Path-39" stroke="#142832" stroke-width="0.699999988" stroke-linecap="round" mask="url(#mask-2)"></path>
                                    <polyline id="Path-41" stroke="#142832" stroke-width="0.699999988" stroke-linecap="round" mask="url(#mask-2)" points="39.226842 18.2702703 39.226842 31.6239091 43.990469 31.6239091 43.990469 18.2702703"></polyline>
                                    <line x1="12.8378725" y1="26.9698493" x2="14.0317722" y2="38.0550778" id="Path-40" stroke="#142832" stroke-width="0.699999988" stroke-linecap="round" mask="url(#mask-2)"></line>
                                    <line x1="68.8378725" y1="26.9698493" x2="70.0317722" y2="38.0550778" id="Path-40" stroke="#142832" stroke-width="0.699999988" stroke-linecap="round" mask="url(#mask-2)" transform="translate(69.434822, 32.512464) scale(-1, 1) translate(-69.434822, -32.512464) "></line>
                                </g>
                                <g id="Oval" transform="translate(26.600000, 41.459459)">
                                    <mask id="mask-4" fill="white">
                                        <use xlink:href="#path-3"></use>
                                    </mask>
                                    <use id="Mask" fill="#FD9460" xlink:href="#path-3"></use>
                                    <ellipse fill="#F37756" mask="url(#mask-4)" cx="15.4" cy="-10.8918919" rx="18.9" ry="29.1621622"></ellipse>
                                </g>
                                <g id="Path-42" transform="translate(23.413195, 11.208477)">
                                    <mask id="mask-6" fill="white">
                                        <use xlink:href="#path-5"></use>
                                    </mask>
                                    <use id="Mask" fill="#FB9466" xlink:href="#path-5"></use>
                                    <path d="M29.6888328,4.54747351e-13 C33.3894537,16.6844571 32.1134492,30.3780647 25.8608194,41.0808228 C38.7448096,38.4372413 45.1868047,33.041218 45.1868047,24.892753 C45.1868047,16.7442881 40.0208141,8.44670373 29.6888328,4.54747351e-13 Z" fill="url(#linearGradient-7)" mask="url(#mask-6)"></path>
                                </g>
                            </g>
                        </g>
                    </g>
                </g>
            </g>
        </g>
    </g>
</svg>