<?xml version="1.0" encoding="UTF-8"?>
<svg width="160px" height="160px" viewBox="0 0 160 160" version="1.1" xmlns="http://www.w3.org/2000/svg" xmlns:xlink="http://www.w3.org/1999/xlink">
    <!-- Generator: Sketch 59.1 (86144) - https://sketch.com -->
    <title>Ic_modular genetic</title>
    <desc>Created with Sketch.</desc>
    <g id="Design" stroke="none" stroke-width="1" fill="none" fill-rule="evenodd">
        <g id="Physicians_V6" transform="translate(-240.000000, -1884.000000)">
            <g id="From-start-to-finish,-the-process-is-painless-and-intuitive." transform="translate(135.000000, 1646.000000)">
                <g id="Card" transform="translate(0.000000, 178.000000)">
                    <g id="Group-8">
                        <g id="Ic_modular-genetic" transform="translate(105.000000, 60.000000)">
                            <circle id="Oval" fill="#076475" cx="80" cy="80" r="80"></circle>
                            <g id="1548285" transform="translate(30.000000, 30.000000)" fill-rule="nonzero">
                                <path d="M53.6671528,68.9655172 C53.2826205,68.9655172 52.8973283,68.818849 52.6032298,68.5247524 L29.7509231,45.6726136 C29.1634854,45.0851803 29.1634854,44.1322164 29.7509231,43.5440231 C30.3391204,42.95659 31.2920916,42.95659 31.879529,43.5440231 L54.7318357,66.396162 C55.3192732,66.9835952 55.3192732,67.9373192 54.7318357,68.5247524 C54.4377369,68.818849 54.0524448,68.9655172 53.6671528,68.9655172 L53.6671528,68.9655172 Z" id="Path" fill="#FB9466"></path>
                                <path d="M64.0418739,65.5172414 C63.6642334,65.5172414 63.2865931,65.3727409 62.9990798,65.0852295 L34.9151457,37.0014637 C34.3386296,36.4256957 34.3386296,35.4909109 34.9151457,34.9151431 C35.4909169,34.3386305 36.4257074,34.3386305 37.0014788,34.9151431 L65.0854129,62.998164 C65.6611842,63.5746766 65.6611842,64.5087167 65.0854129,65.0852295 C64.7971548,65.3727409 64.4195143,65.5172414 64.0418739,65.5172414 L64.0418739,65.5172414 Z" id="Path" fill="#FB9466"></path>
                                <path d="M67.4604792,55.1724138 C67.0751955,55.1724138 66.6899121,55.0257486 66.3958198,54.7316586 L43.5440167,31.8800234 C42.9565921,31.2926032 42.9565921,30.3389002 43.5440167,29.75148 C44.1322012,29.1632998 45.0851512,29.1632998 45.6733358,29.75148 L68.5243788,52.6023552 C69.1125634,53.1905354 69.1125634,54.1434784 68.5243788,54.7316586 C68.2302865,55.0257486 67.845003,55.1724138 67.4604792,55.1724138 L67.4604792,55.1724138 Z" id="Path" fill="#FB9466"></path>
                                <path d="M89.9120297,31.0344828 C89.5366014,31.0344828 89.1619136,30.891565 88.875344,30.6049888 L67.6706782,9.4005756 C67.0982797,8.82742322 67.0982797,7.89882775 67.6706782,7.32641601 C68.2438174,6.75326363 69.1723915,6.75326363 69.7455307,7.32641601 L90.9494561,28.530829 C91.5225951,29.1039814 91.5225951,30.0325771 90.9494561,30.6049888 C90.6628865,30.891565 90.2874581,31.0344828 89.9120297,31.0344828 L89.9120297,31.0344828 Z" id="Path" fill="#FB9466"></path>
                                <path d="M29.5677689,91.3793103 C29.1923434,91.3793103 28.8169179,91.2363937 28.5303505,90.9498199 L7.3258475,69.7448285 C6.75345313,69.1724212 6.75345313,68.2438328 7.3258475,67.6706848 C7.89898211,67.0982775 8.8275491,67.0982775 9.4006839,67.6706848 L30.6051871,88.875676 C31.1775813,89.4480833 31.1775813,90.3774123 30.6051871,90.9498199 C30.3186197,91.2363937 29.9431944,91.3793103 29.5677689,91.3793103 L29.5677689,91.3793103 Z" id="Path" fill="#FB9466"></path>
                                <path d="M27.6864302,63.0545716 C18.4186436,61.356026 8.77242454,61.0857025 0.972011998,68.6459243 C-0.323623947,69.9025238 -0.324383996,71.9391579 0.972011998,73.1957576 C2.2684078,74.4523571 4.36954198,74.4516206 5.66593778,73.1957576 C11.9906172,67.0652309 20.0410381,67.9645908 29.3103448,69.9408257 C28.7852512,67.6257656 28.2077244,65.3195443 27.6864302,63.0545716 L27.6864302,63.0545716 Z" id="Path" fill="#29DBC7"></path>
                                <path d="M73.1683846,5.69767423 C74.4611132,4.39401696 74.4611132,2.28111377 73.1683846,0.977456501 C71.8764137,-0.326200959 69.7804655,-0.325436652 68.4884946,0.977456501 C50.0318751,19.5901073 76.8654674,47.3978982 61.7967671,62.5939888 C54.6549337,69.796963 45.3057621,67.6466162 34.4827586,65.1111327 C35.0359193,67.5090674 35.5913531,69.9245778 36.0399436,72.318692 C46.3908661,74.6455599 57.6260879,76.2403621 66.4774148,67.3142065 C84.9802573,48.6541778 58.1049885,20.8884156 73.1683846,5.69767423 Z" id="Path" fill="#29DBC7"></path>
                                <path d="M63.7931034,34.8881614 C63.2414584,32.4993812 62.6799624,30.0502319 62.2359185,27.6813197 C51.8849959,25.3544368 40.6497742,23.7596243 31.7984473,32.6858375 C13.3812312,51.2596358 40.1193462,79.1638907 25.1074775,94.3027667 C23.8147489,95.6056683 23.8147489,97.7193492 25.1074775,99.0222508 C26.4002063,100.325916 28.4953966,100.325916 29.7873675,99.0222508 C48.3606811,80.2925626 21.3308305,52.6817473 36.479095,37.4060856 C43.6216861,30.2030649 52.9701,32.3534256 63.7931034,34.8881614 L63.7931034,34.8881614 Z" id="Path" fill="#0084FF"></path>
                                <path d="M99.0282888,26.8052731 C97.731914,25.5476676 95.6308138,25.5476676 94.334439,26.8052731 C88.0098621,32.9407077 79.9595716,32.0406278 70.6896552,30.0628107 C71.2200595,32.3996278 71.7914979,34.6789456 72.3143033,36.9545778 C82.5667592,38.835089 91.6550615,38.5107358 99.0282888,31.3580118 C100.323904,30.1011434 100.323904,28.0621415 99.0282888,26.8052731 L99.0282888,26.8052731 Z" id="Path" fill="#0084FF"></path>
                            </g>
                        </g>
                    </g>
                </g>
            </g>
        </g>
    </g>
</svg>